<?xml version="1.0" encoding="UTF-8" standalone="no"?>
<svg xmlns="http://www.w3.org/2000/svg" xmlns:xlink="http://www.w3.org/1999/xlink" width="55.525mm" height="24.350mm" viewBox="143.136444 175.362808 55.525238 24.349899">
    <path style="stroke:none;fill:#000000;fill-rule:evenodd" d="M167.743454,199.384308C167.432617,199.014908,167.195374,198.148743,167.195374,197.383377C167.195374,196.904388,167.108932,196.819473,166.86731,197.061081C166.757965,197.170441,166.726715,197.131378,166.726715,196.885345C166.726715,196.647125,166.784576,196.569016,166.961044,196.569016C167.160645,196.569016,167.195374,196.490906,167.195374,196.041779C167.195374,195.55751,167.219238,195.514557,167.488266,195.514557C167.757309,195.514557,167.781174,195.55751,167.781174,196.041779C167.781174,196.432327,167.826736,196.569016,167.956909,196.569016C168.072769,196.569016,168.129501,196.678802,168.123413,196.891205C168.118317,197.068405,168.087555,197.147491,168.055069,197.06694C167.898605,196.679184,167.781418,197.008102,167.783752,197.828491C167.785568,198.470764,167.852463,198.882217,168.012344,199.234436C168.275818,199.814896,168.160065,199.879425,167.743454,199.384308zM167.163635,196.732544C167.124695,196.693619,167.023651,196.689453,166.939072,196.723297C166.845612,196.760696,166.873367,196.788452,167.009857,196.794083C167.133362,196.799164,167.20256,196.771484,167.163635,196.732544zM167.833771,199.091736C167.714996,198.807465,167.664017,198.226837,167.664017,197.158585C167.664017,195.879486,167.635498,195.631714,167.488266,195.631714C167.343872,195.631714,167.313034,195.83548,167.315384,196.774048C167.318512,198.02034,167.448639,198.770599,167.738373,199.212784C167.999329,199.611053,168.032944,199.568405,167.833771,199.091736z"/>
    <path style="stroke:none;fill:#000000;fill-rule:evenodd" d="M184.731842,199.384308C184.421021,199.014908,184.183762,198.148743,184.183762,197.383377C184.183762,196.904388,184.097321,196.819473,183.855713,197.061081C183.746353,197.170441,183.715118,197.131378,183.715118,196.885345C183.715118,196.647125,183.77298,196.569016,183.949432,196.569016C184.149048,196.569016,184.183762,196.490906,184.183762,196.041779C184.183762,195.55751,184.207626,195.514557,184.476654,195.514557C184.745697,195.514557,184.769562,195.55751,184.769562,196.041779C184.769562,196.432327,184.815125,196.569016,184.945313,196.569016C185.061157,196.569016,185.117889,196.678802,185.111801,196.891205C185.10672,197.068405,185.075958,197.147491,185.043457,197.06694C184.886993,196.679184,184.769806,197.008102,184.772141,197.828491C184.773956,198.470764,184.840851,198.882217,185.000732,199.234436C185.264221,199.814896,185.148453,199.879425,184.731842,199.384308zM184.152023,196.732544C184.113098,196.693619,184.012039,196.689453,183.92746,196.723297C183.834,196.760696,183.861755,196.788452,183.99826,196.794083C184.121765,196.799164,184.190964,196.771484,184.152023,196.732544zM184.822174,199.091736C184.7034,198.807465,184.652405,198.226837,184.652405,197.158585C184.652405,195.879486,184.623886,195.631714,184.476654,195.631714C184.332275,195.631714,184.301422,195.83548,184.303787,196.774048C184.306915,198.02034,184.437042,198.770599,184.726761,199.212784C184.987717,199.611053,185.021332,199.568405,184.822174,199.091736z"/>
    <path style="stroke:none;fill:#000000;fill-rule:evenodd" d="M149.347794,198.834122C149.304825,198.791168,149.269684,198.026688,149.269684,197.135284L149.269684,195.514557L149.562592,195.514557C149.844971,195.514557,149.855484,195.541901,149.855484,196.276108L149.855484,197.037659L150.441299,197.037659L151.0271,197.037659L151.0271,196.276108C151.0271,195.541901,151.037613,195.514557,151.320007,195.514557L151.612915,195.514557L151.612915,197.221542C151.612915,198.924744,151.61232,198.928452,151.349289,198.891098C151.109772,198.857071,151.08252,198.781387,151.051041,198.06282L151.016388,197.271973L150.435944,197.271973L149.855484,197.271973L149.855484,198.092102C149.855484,198.80928,149.828522,198.912231,149.640686,198.912231C149.522552,198.912231,149.390747,198.87709,149.347794,198.834122zM151.495743,197.154816C151.495743,196.268402,151.449112,195.631714,151.384171,195.631714C151.25531,195.631714,151.185318,196.73996,151.241745,197.88707C151.310028,199.275085,151.495743,198.73967,151.495743,197.154816zM149.738327,197.154816C149.738327,195.879059,149.709793,195.631714,149.562592,195.631714C149.415375,195.631714,149.386841,195.879059,149.386841,197.154816C149.386841,198.430573,149.415375,198.677917,149.562592,198.677917C149.709793,198.677917,149.738327,198.430573,149.738327,197.154816z"/>
    <path style="stroke:none;fill:#000000;fill-rule:evenodd" d="M152.245544,198.822571C152.008804,198.66449,151.873184,198.272415,151.968277,198.020935C152.020706,197.882278,152.284164,197.684998,152.569183,197.570953C153.145493,197.340363,153.295273,197.170975,153.11496,196.953705C153.024353,196.844543,153.03154,196.803329,153.14119,196.803329C153.224258,196.803329,153.259323,196.770432,153.219116,196.730225C153.178909,196.690018,152.960709,196.766449,152.734222,196.900085C152.507736,197.033707,152.293716,197.096573,152.258606,197.03978C152.161087,196.881973,152.679382,196.569016,153.038269,196.569016C153.542252,196.569016,153.721817,196.94519,153.721817,198.001007L153.721817,198.912231L153.048126,198.910446C152.677612,198.909454,152.316452,198.869919,152.245544,198.822571zM152.407761,198.493484C152.300766,198.258652,152.303299,198.139145,152.419235,197.953522C152.627396,197.620178,152.33757,197.721344,152.112289,198.060654C151.96524,198.282104,151.973755,198.335785,152.190125,198.55217C152.512909,198.874954,152.574051,198.858459,152.407761,198.493484zM153.603058,197.997314C153.601303,197.268784,153.510605,196.803329,153.370377,196.803329C153.320984,196.803329,153.294998,196.974686,153.312607,197.184113C153.330231,197.393539,153.350418,197.844788,153.357483,198.18689C153.375015,199.03595,153.605118,198.858307,153.603058,197.997314zM153.067841,198.606796C153.184662,198.561981,153.253174,198.393768,153.253174,198.15181C153.253174,197.836639,153.201385,197.758041,152.963806,197.712631C152.804657,197.682205,152.698639,197.696442,152.728195,197.744278C152.757751,197.792099,152.70343,197.896393,152.607483,197.976013C152.396545,198.151093,152.384644,198.348328,152.573624,198.537323C152.733215,198.696915,152.806259,198.707184,153.067841,198.606796z"/>
    <path style="stroke:none;fill:#000000;fill-rule:evenodd" d="M154.151398,198.834122C154.108444,198.791168,154.073303,198.269211,154.073303,197.674225L154.073303,196.592438L154.787979,196.592438C155.805862,196.592438,155.947876,196.761719,155.947876,197.974945C155.947876,198.834122,155.928345,198.912231,155.713562,198.912231C155.500946,198.912231,155.479065,198.833527,155.477432,198.06282C155.475372,197.087906,155.388336,196.884247,154.997345,196.939529C154.731644,196.977097,154.715988,197.027344,154.683655,197.945648C154.654129,198.784256,154.621811,198.912231,154.439575,198.912231C154.324036,198.912231,154.194366,198.87709,154.151398,198.834122zM155.830719,197.896301C155.830719,197.041672,155.639343,196.678772,155.197464,196.695419C155.029678,196.701752,155.007614,196.724548,155.127747,196.767487C155.470413,196.889938,155.59639,197.204803,155.59639,197.938751C155.59639,198.353424,155.647827,198.677917,155.713562,198.677917C155.779953,198.677917,155.830719,198.339264,155.830719,197.896301zM154.541946,197.682037C154.541946,196.874939,154.508636,196.686172,154.366196,196.686172C154.22377,196.686172,154.19046,196.874939,154.19046,197.682037C154.19046,198.489151,154.22377,198.677917,154.366196,198.677917C154.508636,198.677917,154.541946,198.489151,154.541946,197.682037z"/>
    <path style="stroke:none;fill:#000000;fill-rule:evenodd" d="M156.921295,198.793945C156.470779,198.612488,156.287201,198.20459,156.427429,197.696671C156.523331,197.349365,156.67662,197.173447,157.127747,196.893005C157.676193,196.552078,157.705292,196.508301,157.705292,196.024277C157.705292,195.592667,157.741211,195.514557,157.939621,195.514557C158.163177,195.514557,158.17395,195.592667,158.17395,197.213394L158.17395,198.912231L157.67601,198.904816C157.402145,198.900726,157.062515,198.85083,156.921295,198.793945zM156.941223,198.472885C156.740952,197.996429,156.754166,197.724472,156.998047,197.30394L157.254395,196.861908L156.886765,197.222931C156.487885,197.614624,156.382095,198.17836,156.647476,198.498108C156.850998,198.743347,157.047791,198.72644,156.941223,198.472885zM158.056778,197.154816C158.056778,196.217529,158.011719,195.631714,157.939621,195.631714C157.875183,195.631714,157.822464,195.868973,157.822464,196.158951C157.822464,196.497681,157.770096,196.689484,157.67601,196.695419C157.558838,196.70282,157.558838,196.716492,157.67601,196.763763C157.775864,196.804062,157.822464,197.117981,157.822464,197.750381C157.822464,198.290634,157.871384,198.677917,157.939621,198.677917C158.011719,198.677917,158.056778,198.092102,158.056778,197.154816zM157.705292,197.736496C157.705292,196.95578,157.693237,196.918701,157.47699,197.034439C156.745056,197.426147,156.700104,198.56076,157.416519,198.56076C157.696091,198.56076,157.705292,198.534454,157.705292,197.736496z"/>
    <path style="stroke:none;fill:#000000;fill-rule:evenodd" d="M159.148178,198.7229C158.651855,198.478149,158.473022,197.975677,158.693985,197.446823C158.894867,196.966064,159.304764,196.685059,159.926895,196.601608C160.34288,196.545822,160.400009,196.566422,160.400009,196.772171C160.400009,196.980896,160.34996,196.99704,159.936951,196.921509C159.682266,196.874939,159.483093,196.868835,159.494354,196.907959C159.505615,196.947067,159.415604,197.127655,159.294312,197.309265C159.115753,197.57663,159.094208,197.721512,159.181,198.070801C159.286102,198.493713,159.299088,198.502029,159.844101,198.494812C160.305481,198.488693,160.400009,198.52356,160.400009,198.699844C160.400009,198.867645,160.30777,198.911682,159.960648,198.909576C159.719009,198.908096,159.353394,198.824097,159.148178,198.7229zM160.251114,196.732544C160.212189,196.693619,160.11113,196.689453,160.02655,196.723297C159.93309,196.760696,159.960861,196.788452,160.097336,196.794083C160.220856,196.799164,160.290039,196.771484,160.251114,196.732544zM159.176453,198.417526C158.943375,198.084747,158.945114,197.709518,159.181961,197.236862L159.369843,196.861908L159.045273,197.177002C158.661865,197.54921,158.614456,198.088852,158.934128,198.442078C159.222565,198.760803,159.404022,198.742416,159.176453,198.417526z"/>
    <path style="stroke:none;fill:#000000;fill-rule:evenodd" d="M160.829605,198.834122C160.786636,198.791168,160.751495,198.263947,160.751495,197.662506C160.751495,196.574219,160.752884,196.569016,161.044403,196.569016C161.296371,196.569016,161.337555,196.622208,161.339096,196.949783C161.340073,197.15921,161.379623,197.276016,161.426971,197.209351C161.55603,197.027618,162.174408,196.569016,162.29039,196.569016C162.34613,196.569016,162.391754,196.700821,162.391754,196.861908C162.391754,197.069656,162.328217,197.154816,162.173233,197.154816C162.05304,197.154816,161.815796,197.264084,161.645996,197.397644C161.380249,197.606689,161.337296,197.728943,161.337296,198.276352C161.337296,198.814865,161.304413,198.912231,161.122498,198.912231C161.004364,198.912231,160.872559,198.87709,160.829605,198.834122zM162.274597,196.894806C162.274597,196.737518,162.07724,196.794144,161.789627,197.033951L161.513046,197.264557L161.893814,197.125427C162.103241,197.048889,162.274597,196.945114,162.274597,196.894806zM161.220139,197.682037C161.220139,196.874939,161.186829,196.686172,161.044403,196.686172C160.901962,196.686172,160.868652,196.874939,160.868652,197.682037C160.868652,198.489151,160.901962,198.677917,161.044403,198.677917C161.186829,198.677917,161.220139,198.489151,161.220139,197.682037z"/>
    <path style="stroke:none;fill:#000000;fill-rule:evenodd" d="M163.141541,198.822571C162.9048,198.66449,162.769196,198.272415,162.864288,198.020935C162.916718,197.882278,163.180176,197.684998,163.465195,197.570953C164.041504,197.340363,164.191269,197.170975,164.010956,196.953705C163.920349,196.844543,163.927536,196.803329,164.037186,196.803329C164.120255,196.803329,164.155334,196.770432,164.115112,196.730225C164.074905,196.690018,163.856705,196.766449,163.630219,196.900085C163.403748,197.033707,163.189713,197.096573,163.154617,197.03978C163.057083,196.881973,163.575394,196.569016,163.934265,196.569016C164.438263,196.569016,164.617813,196.94519,164.617813,198.001007L164.617813,198.912231L163.944138,198.910446C163.573608,198.909454,163.212448,198.869919,163.141541,198.822571zM163.303772,198.493484C163.196762,198.258652,163.19931,198.139145,163.315231,197.953522C163.523407,197.620178,163.233582,197.721344,163.008286,198.060654C162.861252,198.282104,162.869751,198.335785,163.086136,198.55217C163.40892,198.874954,163.470062,198.858459,163.303772,198.493484zM164.499054,197.997314C164.497299,197.268784,164.406601,196.803329,164.266373,196.803329C164.216995,196.803329,164.19101,196.974686,164.208618,197.184113C164.226227,197.393539,164.246429,197.844788,164.253479,198.18689C164.271027,199.03595,164.501129,198.858307,164.499054,197.997314zM163.963852,198.606796C164.080658,198.561981,164.14917,198.393768,164.14917,198.15181C164.14917,197.836639,164.097382,197.758041,163.859818,197.712631C163.700668,197.682205,163.594635,197.696442,163.624207,197.744278C163.653763,197.792099,163.599442,197.896393,163.503494,197.976013C163.292542,198.151093,163.28064,198.348328,163.469635,198.537323C163.629227,198.696915,163.702271,198.707184,163.963852,198.606796z"/>
    <path style="stroke:none;fill:#000000;fill-rule:evenodd" d="M165.520096,198.838181C165.474915,198.792999,165.437943,198.343033,165.437943,197.838257C165.437943,196.927368,165.380264,196.79071,165.109894,197.061081C165.000549,197.170441,164.969299,197.131378,164.969299,196.885345C164.969299,196.650787,165.027832,196.569016,165.195724,196.569016C165.328751,196.569016,165.455139,196.460266,165.50209,196.305389C165.605179,195.965485,166.018265,195.514557,166.226563,195.514557C166.358276,195.514557,166.354462,195.563187,166.206131,195.774948C165.971542,196.109863,165.967712,196.569016,166.199493,196.569016C166.296188,196.569016,166.375244,196.672745,166.375244,196.799652C166.375244,196.953598,166.31842,197.008499,166.204407,196.964752C166.064713,196.911148,166.027344,197.077103,165.999374,197.875122C165.972397,198.644989,165.926849,198.858383,165.783722,198.885696C165.683914,198.904755,165.565292,198.883362,165.520096,198.838181zM165.406219,196.732544C165.367279,196.693619,165.266235,196.689453,165.181656,196.723297C165.088196,196.760696,165.115952,196.788452,165.252441,196.794083C165.375946,196.799164,165.445145,196.771484,165.406219,196.732544zM165.906586,197.398727C165.906586,196.69516,165.94043,196.022949,165.981812,195.904907C166.054031,195.698822,166.048218,195.698593,165.835358,195.899216C165.649689,196.074219,165.607239,196.316833,165.574036,197.393036C165.539703,198.505493,165.559357,198.677917,165.72049,198.677917C165.87915,198.677917,165.906586,198.489334,165.906586,197.398727z"/>
    <path style="stroke:none;fill:#000000;fill-rule:evenodd" d="M171.332123,198.793945C170.881622,198.612488,170.698044,198.20459,170.838272,197.696671C170.934174,197.349365,171.087463,197.173447,171.538605,196.893005C172.087036,196.552078,172.11615,196.508301,172.11615,196.024277C172.11615,195.592667,172.152054,195.514557,172.350464,195.514557C172.574005,195.514557,172.584778,195.592667,172.584778,197.213394L172.584778,198.912231L172.086853,198.904816C171.812988,198.900726,171.473358,198.85083,171.332123,198.793945zM171.352066,198.472885C171.151794,197.996429,171.165009,197.724472,171.408905,197.30394L171.665237,196.861908L171.297607,197.222931C170.898727,197.614624,170.792938,198.17836,171.058319,198.498108C171.261841,198.743347,171.458633,198.72644,171.352066,198.472885zM172.467621,197.154816C172.467621,196.217529,172.422562,195.631714,172.350464,195.631714C172.286026,195.631714,172.233307,195.868973,172.233307,196.158951C172.233307,196.497681,172.180939,196.689484,172.086853,196.695419C171.969696,196.70282,171.969696,196.716492,172.086853,196.763763C172.186707,196.804062,172.233307,197.117981,172.233307,197.750381C172.233307,198.290634,172.282227,198.677917,172.350464,198.677917C172.422562,198.677917,172.467621,198.092102,172.467621,197.154816zM172.11615,197.736496C172.11615,196.95578,172.10408,196.918701,171.887817,197.034439C171.155899,197.426147,171.110947,198.56076,171.827362,198.56076C172.106934,198.56076,172.11615,198.534454,172.11615,197.736496z"/>
    <path style="stroke:none;fill:#000000;fill-rule:evenodd" d="M175.51149,198.683777C174.39061,198.090942,174.55838,196.500229,175.817734,195.78009C176.41362,195.439362,177.036926,195.421906,177.036926,195.745956C177.036926,195.940369,176.980972,195.966156,176.686798,195.907318C176.45932,195.861816,176.235062,195.903885,176.046539,196.027405C175.669952,196.274155,175.563995,196.268723,175.755646,196.012497C175.839996,195.899719,175.71106,195.99646,175.469116,196.227448C174.80722,196.85939,174.706451,197.757965,175.2323,198.33902C175.556,198.696686,175.623474,198.594788,175.376419,198.121399C175.208664,197.799988,175.164444,197.547104,175.2117,197.179382C175.280151,196.646835,175.488586,196.153244,175.598587,196.263245C175.634766,196.299423,175.593658,196.41423,175.507217,196.518387C175.420776,196.622528,175.347366,196.98851,175.34407,197.331665C175.339294,197.828354,175.393585,198.014725,175.61026,198.24556C175.810394,198.458771,175.8414,198.550888,175.727417,198.593613C175.642151,198.625565,175.809647,198.624573,176.099625,198.591431C176.389603,198.558273,176.676941,198.485092,176.738159,198.428787C176.932159,198.250381,177.036926,198.317184,177.036926,198.619339C177.036926,198.891388,176.997284,198.911865,176.480408,198.907059C176.172958,198.90419,175.739319,198.80426,175.51149,198.683777zM176.919754,195.748886C176.919754,195.684448,176.774765,195.636978,176.597565,195.643402L176.27536,195.655075L176.568268,195.748886C176.72937,195.800476,176.874359,195.847931,176.890472,195.85437C176.906586,195.860779,176.919754,195.813324,176.919754,195.748886zM176.919754,198.677917C176.919754,198.540405,176.829712,198.540405,176.509689,198.677917C176.302048,198.767136,176.312057,198.779541,176.597565,198.786835C176.774765,198.791367,176.919754,198.742355,176.919754,198.677917z"/>
    <path style="stroke:none;fill:#000000;fill-rule:evenodd" d="M177.34935,198.834122C177.306381,198.791168,177.27124,198.263947,177.27124,197.662506C177.27124,196.574219,177.272629,196.569016,177.564148,196.569016C177.816116,196.569016,177.8573,196.622208,177.858841,196.949783C177.859833,197.15921,177.899368,197.276016,177.946716,197.209351C178.075775,197.027618,178.694168,196.569016,178.810135,196.569016C178.865891,196.569016,178.911499,196.700821,178.911499,196.861908C178.911499,197.069656,178.847961,197.154816,178.692978,197.154816C178.572784,197.154816,178.335541,197.264084,178.165741,197.397644C177.899994,197.606689,177.857056,197.728943,177.857056,198.276352C177.857056,198.814865,177.824158,198.912231,177.642242,198.912231C177.524109,198.912231,177.392303,198.87709,177.34935,198.834122zM178.794342,196.894806C178.794342,196.737518,178.596985,196.794144,178.309387,197.033951L178.032791,197.264557L178.413559,197.125427C178.622986,197.048889,178.794342,196.945114,178.794342,196.894806zM177.739883,197.682037C177.739883,196.874939,177.706573,196.686172,177.564148,196.686172C177.421707,196.686172,177.388397,196.874939,177.388397,197.682037C177.388397,198.489151,177.421707,198.677917,177.564148,198.677917C177.706573,198.677917,177.739883,198.489151,177.739883,197.682037z"/>
    <path style="stroke:none;fill:#000000;fill-rule:evenodd" d="M181.88736,198.822571C181.65062,198.66449,181.515015,198.272415,181.610107,198.020935C181.662521,197.882278,181.925995,197.684998,182.211014,197.570953C182.787308,197.340363,182.937088,197.170975,182.756775,196.953705C182.666168,196.844543,182.673355,196.803329,182.783005,196.803329C182.866074,196.803329,182.901138,196.770432,182.860931,196.730225C182.820724,196.690018,182.602524,196.766449,182.376038,196.900085C182.149551,197.033707,181.935532,197.096573,181.900421,197.03978C181.802902,196.881973,182.321198,196.569016,182.680084,196.569016C183.184067,196.569016,183.363632,196.94519,183.363632,198.001007L183.363632,198.912231L182.689957,198.910446C182.319427,198.909454,181.958252,198.869919,181.88736,198.822571zM182.049591,198.493484C181.942581,198.258652,181.945114,198.139145,182.06105,197.953522C182.269226,197.620178,181.979401,197.721344,181.754089,198.060654C181.607056,198.282104,181.61557,198.335785,181.83194,198.55217C182.154724,198.874954,182.215881,198.858459,182.049591,198.493484zM183.244873,197.997314C183.243118,197.268784,183.15242,196.803329,183.012192,196.803329C182.962799,196.803329,182.936813,196.974686,182.954437,197.184113C182.972046,197.393539,182.992233,197.844788,182.999298,198.18689C183.01683,199.03595,183.246933,198.858307,183.244873,197.997314zM182.709656,198.606796C182.826477,198.561981,182.894989,198.393768,182.894989,198.15181C182.894989,197.836639,182.843201,197.758041,182.605621,197.712631C182.446472,197.682205,182.340454,197.696442,182.37001,197.744278C182.399567,197.792099,182.345245,197.896393,182.249298,197.976013C182.038361,198.151093,182.026459,198.348328,182.215454,198.537323C182.375031,198.696915,182.448074,198.707184,182.709656,198.606796z"/>
    <path style="stroke:none;fill:#000000;fill-rule:evenodd" d="M185.550644,198.834122C185.4104,198.693893,185.460495,196.569016,185.604034,196.569016C185.700562,196.569016,185.700195,196.526398,185.6026,196.408813C185.501648,196.28717,185.511063,196.214249,185.641693,196.10582C185.736328,196.027283,185.863541,195.993805,185.924377,196.031403C185.985229,196.069016,186.041962,196.732574,186.050476,197.506012C186.064758,198.805908,186.049393,198.912231,185.847336,198.912231C185.727112,198.912231,185.593597,198.87709,185.550644,198.834122zM185.941177,196.28302C185.941177,196.254608,185.888458,196.198776,185.82402,196.158951C185.759583,196.119125,185.706848,196.142365,185.706848,196.210617C185.706848,196.278854,185.759583,196.334686,185.82402,196.334686C185.888458,196.334686,185.941177,196.311432,185.941177,196.28302zM185.941177,197.682037C185.941177,196.874939,185.907867,196.686172,185.765442,196.686172C185.623001,196.686172,185.589691,196.874939,185.589691,197.682037C185.589691,198.489151,185.623001,198.677917,185.765442,198.677917C185.907867,198.677917,185.941177,198.489151,185.941177,197.682037z"/>
    <path style="stroke:none;fill:#000000;fill-rule:evenodd" d="M186.923065,198.688507C186.519409,198.442352,186.27478,197.90419,186.376007,197.485001C186.483459,197.040146,186.99884,196.569016,187.378052,196.569016C187.848663,196.569016,188.401566,197.136887,188.401566,197.62027C188.401566,198.122253,188.098984,198.665131,187.743942,198.80011C187.354889,198.948029,187.346863,198.94693,186.923065,198.688507zM186.916046,198.31955C186.743607,197.973862,186.748474,197.469574,186.929001,196.97908C187.003571,196.776489,186.982178,196.782211,186.771118,197.021347C186.442642,197.393494,186.447678,198.051163,186.781738,198.406754C187.11377,198.760193,187.130478,198.749359,186.916046,198.31955zM188.151367,198.25589C188.482849,197.528366,188.172058,196.78006,187.567657,196.850433C187.071686,196.908188,186.937042,197.08609,186.937042,197.683716C186.937042,198.31012,187.231155,198.692261,187.554352,198.485779C187.710114,198.386261,187.757019,198.192123,187.75647,197.649094C187.756088,197.260193,187.795624,196.966629,187.844345,196.996735C187.975677,197.077911,187.951721,198.18956,187.813049,198.448654C187.71933,198.623779,187.728638,198.659027,187.855759,198.610245C187.94519,198.575943,188.078217,198.416473,188.151367,198.25589z"/>
    <path style="stroke:none;fill:#000000;fill-rule:evenodd" d="M188.713989,198.834122C188.671036,198.791168,188.635895,198.269211,188.635895,197.674225L188.635895,196.592438L189.350571,196.592438C190.368454,196.592438,190.510468,196.761719,190.510468,197.974945C190.510468,198.834122,190.490936,198.912231,190.276154,198.912231C190.063538,198.912231,190.041656,198.833527,190.040039,198.06282C190.037964,197.087906,189.950928,196.884247,189.559937,196.939529C189.29425,196.977097,189.27858,197.027344,189.246246,197.945648C189.216721,198.784256,189.184402,198.912231,189.002167,198.912231C188.886627,198.912231,188.756958,198.87709,188.713989,198.834122zM190.393311,197.896301C190.393311,197.041672,190.201935,196.678772,189.760056,196.695419C189.59227,196.701752,189.570206,196.724548,189.690338,196.767487C190.033005,196.889938,190.158981,197.204803,190.158981,197.938751C190.158981,198.353424,190.210419,198.677917,190.276154,198.677917C190.342545,198.677917,190.393311,198.339264,190.393311,197.896301zM189.104538,197.682037C189.104538,196.874939,189.071228,196.686172,188.928787,196.686172C188.786362,196.686172,188.753052,196.874939,188.753052,197.682037C188.753052,198.489151,188.786362,198.677917,188.928787,198.677917C189.071228,198.677917,189.104538,198.489151,189.104538,197.682037z"/>
    <path style="stroke:none;fill:#000000;fill-rule:evenodd" d="M190.949829,198.845428C190.84021,198.733902,190.833679,198.326431,190.941513,198.326431C190.98526,198.326431,191.192688,198.388489,191.402435,198.46434C191.703278,198.57312,191.82225,198.570358,191.965759,198.451248C192.215088,198.244324,192.047363,197.974915,191.486572,197.681519C190.643677,197.240524,190.881287,196.569016,191.880219,196.569016C192.304382,196.569016,192.385056,196.605896,192.385056,196.799835C192.385056,196.993027,192.313446,197.026443,191.945694,197.004852C191.313766,196.967773,191.372894,197.263718,192.062866,197.591293C192.537262,197.816528,192.61937,197.905411,192.61937,198.193787C192.61937,198.379837,192.537094,198.600342,192.436523,198.683807C192.228439,198.856506,191.083069,198.981018,190.949829,198.845428zM191.906647,198.752045C191.879791,198.728363,191.654922,198.672272,191.406937,198.627411C191.099915,198.571838,190.980621,198.585571,191.033081,198.670441C191.075439,198.738983,191.300308,198.795074,191.532776,198.795074C191.765259,198.795074,191.933502,198.775711,191.906647,198.752045zM192.361618,198.537323C192.589218,198.309723,192.523773,197.994476,192.205658,197.786041C192.042542,197.679169,191.875595,197.625229,191.834641,197.666168C191.793701,197.707123,191.823395,197.740631,191.900665,197.740631C192.10437,197.740631,192.259689,198.230652,192.132767,198.472885C192.01004,198.707077,192.151917,198.747025,192.361618,198.537323zM191.510284,197.393509C191.208496,197.060028,191.360626,196.763947,191.800598,196.828522C191.993164,196.856781,192.150726,196.836319,192.150726,196.783035C192.150726,196.646164,191.593567,196.662598,191.322906,196.807449C191.040482,196.958603,191.028595,197.338074,191.3013,197.496918C191.633606,197.69046,191.734055,197.640762,191.510284,197.393509z"/>
    <path style="stroke:none;fill:#000000;fill-rule:evenodd" d="M168.920517,198.589828C168.413055,198.029083,168.435837,197.31488,168.975677,196.860626C169.374115,196.52536,169.726654,196.491058,170.098328,196.751389C170.579575,197.08847,170.342911,197.681976,169.567886,198.081589C169.422897,198.156342,169.304276,198.264832,169.304276,198.322662C169.304276,198.510071,169.751755,198.575958,169.994583,198.424301C170.306305,198.22963,170.482727,198.414642,170.189697,198.628906C169.869919,198.862732,169.147354,198.840485,168.920517,198.589828zM170.175797,197.424179C170.270477,197.177429,170.155273,196.840256,169.94928,196.7612C169.812622,196.708771,169.806564,196.748993,169.915192,196.987396C170.026443,197.231567,170.005432,197.334015,169.782272,197.635864L169.517242,197.994339L169.810974,197.801865C169.972534,197.696014,170.136703,197.526062,170.175797,197.424179zM169.255295,198.454193C169.063202,198.241959,169.063782,198.223648,169.266418,198.097122C169.457245,197.977982,169.451904,197.971436,169.2164,198.035828C168.980835,198.10022,168.952789,198.065796,168.952789,197.712326C168.952789,197.494766,169.029587,197.214417,169.123444,197.08934C169.276718,196.885086,169.280685,196.906662,169.162399,197.301163C169.089966,197.542755,169.06192,197.771637,169.100067,197.809799C169.237701,197.947433,169.672852,197.714127,169.800308,197.434387C169.957581,197.089203,169.843918,196.950134,169.362854,196.899155C169.059723,196.867035,168.982788,196.920349,168.803665,197.286636C168.574661,197.754974,168.668228,198.249878,169.039032,198.531464C169.33609,198.757034,169.482132,198.704865,169.255295,198.454193z"/>
    <path style="stroke:none;fill:#000000;fill-rule:evenodd" d="M179.699356,198.589828C179.191895,198.029083,179.214676,197.31488,179.754517,196.860626C180.152969,196.52536,180.505493,196.491058,180.877167,196.751389C181.358429,197.08847,181.12175,197.681976,180.346725,198.081589C180.201736,198.156342,180.083115,198.264832,180.083115,198.322662C180.083115,198.510071,180.530594,198.575958,180.773422,198.424301C181.085144,198.22963,181.261566,198.414642,180.968536,198.628906C180.648773,198.862732,179.926193,198.840485,179.699356,198.589828zM180.954651,197.424179C181.049332,197.177429,180.934128,196.840256,180.728119,196.7612C180.591461,196.708771,180.585403,196.748993,180.694031,196.987396C180.805283,197.231567,180.784286,197.334015,180.561127,197.635864L180.296082,197.994339L180.589828,197.801865C180.751389,197.696014,180.915543,197.526062,180.954651,197.424179zM180.034134,198.454193C179.842041,198.241959,179.842621,198.223648,180.045258,198.097122C180.236084,197.977982,180.230743,197.971436,179.995239,198.035828C179.759689,198.10022,179.731628,198.065796,179.731628,197.712326C179.731628,197.494766,179.808426,197.214417,179.902283,197.08934C180.055557,196.885086,180.059525,196.906662,179.941238,197.301163C179.868805,197.542755,179.840759,197.771637,179.878906,197.809799C180.016541,197.947433,180.451691,197.714127,180.579147,197.434387C180.73642,197.089203,180.622757,196.950134,180.141693,196.899155C179.838562,196.867035,179.761627,196.920349,179.58252,197.286636C179.3535,197.754974,179.447083,198.249878,179.817871,198.531464C180.114929,198.757034,180.260971,198.704865,180.034134,198.454193z"/>
    <path style="stroke:none;fill:#000000;fill-rule:evenodd" d="M152.02298,193.601776C151.01619,193.207809,150.543137,192.500793,150.536682,191.380402C150.534348,190.977844,150.610001,190.464828,150.704788,190.240356C151.029861,189.470551,151.892258,188.836365,152.613998,188.836365L152.919662,188.836365L152.575287,189.126129C152.107651,189.519623,151.931015,190.223099,151.981598,191.49054C152.045288,193.085922,152.616699,193.9142,153.40564,193.554733C153.921265,193.319809,154.131882,192.664963,154.131882,191.296753C154.131882,189.953262,153.908249,189.263855,153.386978,189.000259C152.949738,188.779175,152.99411,188.75029,153.619141,188.849091C154.958344,189.060791,155.657684,189.977173,155.576492,191.413986C155.520279,192.408661,155.114899,193.069168,154.307617,193.481354C153.715958,193.783432,152.633087,193.840515,152.02298,193.601776z"/>
    <path style="stroke:none;fill:#000000;fill-rule:evenodd" d="M157.588974,193.570496C156.690186,193.18074,156.182205,192.381165,156.182205,191.356232C156.182205,189.760742,157.14595,188.817505,158.770859,188.822632C160.139557,188.826965,160.96788,189.437256,161.213974,190.622696C161.476913,191.889221,160.941818,193.053436,159.873779,193.538635C159.295441,193.801361,158.157928,193.81723,157.588974,193.570496zM159.264343,193.430649C159.661255,192.992065,159.847961,192.311981,159.850128,191.296753C159.853271,189.827942,159.40683,188.924225,158.67807,188.924225C157.5336,188.924225,157.163254,192.27124,158.187119,193.361099C158.498825,193.692902,158.997864,193.725113,159.264343,193.430649z"/>
    <path style="stroke:none;fill:#000000;fill-rule:evenodd" d="M168.574768,193.552826C168.262802,193.35936,168.07251,193.075272,168.181732,192.966034C168.211761,192.936005,168.384811,193.017166,168.566284,193.146393C169.091614,193.520462,169.764496,193.531235,170.124405,193.171326C170.339783,192.955948,170.358719,192.780792,170.358719,191.003845L170.358719,189.070679L169.480011,189.070679C168.972321,189.070679,168.601303,189.02121,168.601303,188.953522C168.601303,188.884033,169.03331,188.836365,169.662994,188.836365L170.724701,188.836365L170.688156,191.014236L170.651627,193.192108L170.322906,193.474625C169.922638,193.818619,169.065247,193.856964,168.574768,193.552826z"/>
    <path style="stroke:none;fill:#000000;fill-rule:evenodd" d="M172.467621,191.296753C172.467621,189.187851,172.492737,188.836365,172.643372,188.836365C172.794006,188.836365,172.819107,189.187851,172.819107,191.296753C172.819107,193.405655,172.794006,193.757141,172.643372,193.757141C172.492737,193.757141,172.467621,193.405655,172.467621,191.296753z"/>
    <path style="stroke:none;fill:#000000;fill-rule:evenodd" d="M175.442276,193.465027C174.478607,192.984802,174.048508,192.196899,174.130585,191.062088C174.194839,190.173859,174.637085,189.49707,175.414749,189.096863C176.296478,188.643112,177.761719,188.746567,178.260574,189.297791C178.565598,189.634827,178.270218,189.709106,177.852646,189.400391C177.375244,189.047424,176.25116,189.024994,175.585892,189.355148C174.646469,189.82135,174.189941,191.143234,174.620682,192.149933C175.10112,193.272797,176.704819,193.791748,177.827759,193.187729C178.064926,193.06015,178.09137,192.958191,178.09137,192.171341C178.09137,191.461823,178.125427,191.296753,178.271851,191.296753C178.422546,191.296753,178.446716,191.456253,178.418304,192.263336L178.384277,193.229919L177.861511,193.49353C177.132904,193.860947,176.215088,193.850128,175.442276,193.465027z"/>
    <path style="stroke:none;fill:#000000;fill-rule:evenodd" d="M181.133545,193.601166C180.117554,193.132599,179.614471,192.355255,179.614471,191.253937C179.614471,190.245132,180.06131,189.503647,180.941086,189.052536C181.743088,188.641312,183.294922,188.775986,183.767151,189.297791C184.056122,189.617081,183.780029,189.724564,183.412827,189.43573C182.78949,188.945404,181.538101,189.005035,180.754135,189.562424C180.055954,190.058823,179.730316,191.443161,180.131226,192.210571C180.591858,193.092255,181.698975,193.608688,182.663788,193.391907C183.567398,193.188873,183.597946,193.148956,183.597946,192.171341C183.597946,191.461823,183.632019,191.296753,183.778427,191.296753C183.929138,191.296753,183.953293,191.456253,183.924881,192.263336L183.890854,193.229919L183.368103,193.49353C182.78418,193.787964,181.656387,193.8423,181.133545,193.601166z"/>
    <path style="stroke:none;fill:#000000;fill-rule:evenodd" d="M185.589691,191.296753L185.589691,188.836365L187.22995,188.836365C189.322693,188.836365,189.443604,189.051102,187.376404,189.096466L185.882599,189.129272L185.848572,190.09584L185.814545,191.062424L187.166626,191.062424C188.29039,191.062424,188.518723,191.092102,188.518723,191.238174C188.518723,191.384201,188.290909,191.41391,187.171371,191.41391L185.82402,191.41391L185.82402,192.40979L185.82402,193.405655L187.405701,193.405655C188.733521,193.405655,188.987366,193.433853,188.987366,193.58139C188.987366,193.729523,188.720505,193.757141,187.288528,193.757141L185.589691,193.757141L185.589691,191.296753z"/>
    <path style="stroke:none;fill:#000000;fill-rule:evenodd" d="M190.276154,191.296753L190.276154,188.836365L191.517929,188.836365C192.937592,188.836365,193.44812,189.004303,193.804382,189.588531C194.053055,189.996338,194.09375,190.784012,193.889343,191.232651C193.81456,191.39679,193.72229,191.532974,193.684311,191.535278C193.646332,191.537598,193.462433,191.664459,193.275635,191.817184L192.936035,192.094864L193.540558,192.925995C194.026688,193.59436,194.102676,193.757141,193.928574,193.757141C193.79248,193.757141,193.502045,193.45253,193.146606,192.937012L192.581131,192.116882L191.604385,192.116882L190.627625,192.116882L190.627625,192.937012C190.627625,193.587906,190.59137,193.757141,190.451889,193.757141C190.301254,193.757141,190.276154,193.405655,190.276154,191.296753zM192.436539,191.773621C193.471222,191.603821,193.968292,190.682922,193.506866,189.790649C193.267365,189.327484,192.81813,189.159409,191.652802,189.096954L190.627625,189.042023L190.627625,190.462296L190.627625,191.882553L191.242737,191.87558C191.581024,191.871735,192.11824,191.825851,192.436539,191.773621z"/>
    <path style="stroke:none;fill:#000000;fill-rule:evenodd" d="M196.485703,192.887268L196.485703,192.017395L195.596161,190.583984C194.579147,188.945175,194.526382,188.836365,194.748566,188.836365C194.837952,188.836365,195.300217,189.471085,195.775833,190.246857C196.286438,191.079697,196.683655,191.614304,196.745743,191.552216C196.803558,191.494385,197.2052,190.873276,197.638245,190.171967C198.071304,189.470657,198.516449,188.879364,198.627472,188.857971C198.767075,188.831085,198.522125,189.321899,197.833252,190.449432L196.837189,192.079758L196.837189,192.918442C196.837189,193.585846,196.801285,193.757141,196.661438,193.757141C196.521011,193.757141,196.485703,193.582382,196.485703,192.887268z"/>
    <path style="stroke:none;fill:#000000;fill-rule:evenodd" d="M144.844009,192.731979C144.653961,192.232574,144.297348,191.270386,144.051544,190.593781C143.805725,189.917175,143.499268,189.244965,143.370529,189.099976L143.136444,188.836365L144.213547,188.836365C145.28656,188.836365,145.29039,188.837418,145.221344,189.112534C145.139771,189.437576,146.100098,192.287125,146.243057,192.14418C146.293793,192.09343,146.438797,191.751099,146.565292,191.383453C146.795212,190.715164,146.795212,190.714752,146.551987,189.980698C146.418182,189.576843,146.228622,189.15416,146.130768,189.041397C145.962875,188.847916,146.01828,188.836563,147.113327,188.83992C148.031128,188.842743,148.224808,188.87085,148.03949,188.974365C147.910614,189.046341,147.788635,189.118378,147.768448,189.134445C147.74826,189.150513,147.952316,189.856918,148.221924,190.704254C148.491531,191.551575,148.734863,192.222107,148.76265,192.194321C148.912598,192.044373,149.49588,189.69606,149.434418,189.489792C149.394531,189.355942,149.248871,189.155334,149.110748,189.044006C148.866394,188.847031,148.879669,188.841507,149.602295,188.838959L150.344971,188.836365L150.064545,189.169632C149.887283,189.38028,149.551331,190.263962,149.151443,191.571442L148.518768,193.639984L148.142365,193.639984C147.767151,193.639984,147.764587,193.635864,147.330948,192.334473C146.835312,190.847046,146.923157,190.818649,146.282486,192.673401C145.956741,193.616425,145.939362,193.639984,145.569077,193.639984C145.203522,193.639984,145.176834,193.606552,144.844009,192.731979z"/>
    <path style="stroke:none;fill:#000000;fill-rule:evenodd" d="M161.893814,193.519165C162.153778,193.414673,162.157425,193.383453,162.157425,191.259857C162.157425,189.144745,162.15274,189.104095,161.893814,188.971848C161.685944,188.865677,161.989456,188.843658,163.329041,188.867767C164.870773,188.895508,165.081497,188.925278,165.607605,189.189545C166.333405,189.554138,166.575882,189.887985,166.731613,190.737106C166.903778,191.675827,166.724396,192.277298,166.090424,192.887024C165.5849,193.373199,164.736389,193.715912,164.309662,193.606277C164.107086,193.55423,164.108246,193.548691,164.324921,193.532684C165.108704,193.474762,165.565308,192.08551,165.319412,190.506882C165.171631,189.558167,164.915131,189.165802,164.348862,189.022171C163.600037,188.832245,163.56311,188.935944,163.565155,191.223221C163.566147,192.326904,163.605682,193.287903,163.65303,193.358795C163.700378,193.429688,163.818192,193.517792,163.914856,193.554581C164.011505,193.59137,163.537003,193.622299,162.860397,193.623306C162.012329,193.624557,161.712082,193.592209,161.893814,193.519165z"/>
    <path style="stroke:none;fill:#000000;fill-rule:evenodd" d="M166.433823,185.4104C166.176056,185.344437,165.948776,185.276672,165.928726,185.259796C165.908691,185.24292,165.957336,184.9142,166.036835,184.529297L166.181381,183.829468L165.633682,182.895248C165.089172,181.966461,165.082245,181.96019,164.441833,181.816864C163.736755,181.659073,163.708511,181.605331,163.923615,180.830673C164.007141,180.529861,164.100754,180.402054,164.207535,180.443039C164.882614,180.702087,165.207382,180.660202,165.936722,180.220032C166.444061,179.913834,166.793762,179.783005,167.078201,179.792984C167.508484,179.80806,168.397034,179.487534,168.341019,179.337463C168.282471,179.180573,166.882599,178.200302,165.910645,177.635559C165.388,177.331879,164.932022,177.037537,164.897369,176.981445C164.733688,176.716629,165.669037,175.362808,166.015671,175.362808C166.058289,175.362808,166.512512,175.684494,167.02504,176.077652C167.537567,176.47081,168.115082,176.873123,168.308395,176.97168C168.501709,177.070236,169.015167,177.407745,169.449387,177.721695L170.238892,178.292511L172.818726,176.809082C174.23764,175.99321,175.41629,175.347198,175.437927,175.373535C175.459579,175.399857,175.696014,175.790451,175.963348,176.241516L176.449371,177.061646L175.811935,177.096603L175.174484,177.131561L174.944427,177.740997C174.773483,178.193802,174.659012,178.344528,174.498993,178.327469C174.380539,178.314835,174.156418,178.288483,174.000946,178.26889C173.750977,178.237381,173.691711,178.312759,173.488831,178.920151L173.259415,179.60704L172.687775,179.531219C172.33876,179.484909,172.11615,179.500397,172.11615,179.570969C172.11615,179.744171,174.817505,181.572357,175.073441,181.572357C175.195251,181.572357,175.406647,181.632172,175.543243,181.705261C175.757767,181.820084,175.836456,181.787933,176.121338,181.469086C176.302719,181.266098,176.452789,181.008591,176.454834,180.896835C176.461517,180.532669,176.765335,180.248825,177.067322,180.324631C177.41301,180.411392,178.325684,181.063858,178.325684,181.224228C178.325684,181.289703,178.114807,181.572067,177.857056,181.851685C177.599289,182.131317,177.388397,182.473282,177.388397,182.611588C177.388397,182.749908,177.111603,183.281601,176.7733,183.793121C176.276733,184.543945,176.023254,184.803406,175.457901,185.139511C174.577026,185.663208,173.97641,185.688599,173.053436,185.24118L172.409042,184.928818L173.184006,184.843475C174.083908,184.744385,174.576645,184.521744,174.862915,184.084824C175.064453,183.777237,175.06218,183.768417,174.675278,183.359329C174.286789,182.948563,171.053009,180.752228,170.8367,180.752228C170.774719,180.752228,170.679947,180.976303,170.626099,181.250168C170.531082,181.733459,170.512939,181.749817,170.009293,181.806686C169.508896,181.863174,169.485123,181.884079,169.343277,182.392487C169.262375,182.682465,169.167679,183.061066,169.132858,183.23381C169.083694,183.477707,168.876984,183.654205,168.207916,184.023544C167.408493,184.464828,167.33873,184.534515,167.241531,184.988785C167.121704,185.548904,167.073486,185.574081,166.433823,185.4104zM177.857056,181.289017C177.857056,181.093536,177.061829,180.571106,176.943863,180.689072C176.89946,180.733475,176.946518,180.816467,177.048431,180.873505C177.15036,180.930542,177.360809,181.083008,177.516113,181.212311C177.857635,181.496674,177.857056,181.496536,177.857056,181.289017zM174.576431,182.216919C174.662598,182.055923,174.705093,181.896179,174.670853,181.861954C174.636627,181.827713,174.034988,181.40477,173.333893,180.922073L172.059174,180.044449L171.960724,180.339752C171.906586,180.502182,171.777054,180.635071,171.672882,180.635071C171.549301,180.635071,171.523346,180.674942,171.59819,180.749786C171.751068,180.902679,174.26474,182.508972,174.3517,182.509354C174.38913,182.509521,174.490265,182.37793,174.576431,182.216919zM175.223587,184.902328C175.748871,184.587891,176.062958,184.281158,176.480408,183.674957C176.786484,183.230453,177.036926,182.751846,177.036926,182.611389C177.036926,182.470947,177.17775,182.171387,177.349869,181.945724L177.662827,181.535416L177.320587,181.261566C176.886993,180.914627,176.844269,180.917618,176.641846,181.309021C176.349091,181.875153,176.034851,182.08017,175.574341,182.005432C175.198151,181.944382,175.13472,181.976913,174.869873,182.366684L174.578812,182.795013L175.015671,183.242401L175.45253,183.689789L175.219574,184.124878C175.05751,184.427521,174.798553,184.655289,174.368881,184.873077C173.9263,185.097412,173.810043,185.201508,173.958817,185.24025C174.387573,185.351929,174.540924,185.310959,175.223587,184.902328zM169.370148,178.779694L169.903992,178.447433L169.516266,178.153381C169.303009,177.991653,168.654022,177.555237,168.074081,177.183533C167.494125,176.811859,166.792328,176.323044,166.514542,176.097321L166.009445,175.68689L165.730148,175.949265C165.576538,176.093582,165.398941,176.360565,165.335495,176.542572C165.223373,176.864212,165.242065,176.885483,166.002716,177.302155C166.433136,177.537918,167.127991,177.981262,167.546844,178.287338C168.209564,178.771637,168.70813,179.096558,168.806671,179.108414C168.822983,179.110367,169.076538,178.962448,169.370148,178.779694zM167.072922,184.426743C167.075821,184.35347,167.471024,184.068756,167.951126,183.794067C168.431229,183.519363,168.854416,183.215469,168.891541,183.118729C168.928864,183.021454,168.689957,182.466461,168.356903,181.876831C167.628036,180.586426,167.236252,180.049255,167.023956,180.049255C166.936234,180.049255,166.488541,180.265991,166.029083,180.530899C165.252594,180.978577,165.160995,181.004242,164.730011,180.894836C164.474991,180.830109,164.26561,180.811081,164.26474,180.852554C164.263855,180.894043,164.231339,181.0466,164.19249,181.191589C164.144485,181.370697,164.173172,181.455414,164.281952,181.455856C164.370026,181.456207,164.637711,181.510834,164.876831,181.577255C165.259949,181.683655,165.387024,181.826004,165.946671,182.775772L166.581757,183.853561L166.421188,184.382507C166.213242,185.067474,166.212784,185.064087,166.521683,185.110565C166.774734,185.148636,167.058243,184.796936,167.072922,184.426743zM166.804825,183.603149C166.761871,183.560196,166.725723,183.388855,166.724487,183.222382C166.72168,182.840225,166.081635,181.806686,165.847794,181.806686C165.738678,181.806686,165.672272,181.695862,165.672272,181.513779C165.672272,181.297073,165.734436,181.220871,165.911255,181.220871C166.042694,181.220871,166.345856,181.124817,166.58493,181.007416C166.82402,180.889999,167.102097,180.812897,167.202881,180.83606C167.433075,180.888977,168.249817,182.268494,168.249817,182.60437C168.249817,182.77298,168.097809,182.940933,167.782074,183.121246C167.524811,183.268158,167.313919,183.454269,167.313431,183.534805C167.312485,183.688049,166.939789,183.738129,166.804825,183.603149zM167.810669,182.723267C168.002151,182.578613,167.987579,182.521118,167.593292,181.865265C167.360855,181.478622,167.150177,181.14064,167.125137,181.114182C167.100098,181.087708,166.897049,181.164368,166.67392,181.284531L166.268234,181.503006L166.633224,182.152786C167.218567,183.194855,167.198944,183.185349,167.810669,182.723267zM169.72197,181.572357C170.193344,181.572357,170.227463,181.549866,170.299576,181.191589C170.454941,180.419662,170.459229,180.414932,171.037857,180.377625L171.587967,180.342163L171.746933,179.745422L171.905899,179.148682L172.468338,179.202728L173.030762,179.25676L173.290054,178.545639C173.543564,177.850372,173.557541,177.836029,173.916489,177.90274C174.118408,177.940277,174.33197,177.977264,174.391052,177.984955C174.450134,177.992645,174.607941,177.722137,174.74173,177.383835C174.975937,176.79158,175.001587,176.768738,175.432632,176.768738L175.880295,176.768738L175.616913,176.300095C175.472046,176.042343,175.310745,175.831451,175.258484,175.831451C175.090729,175.831451,167.781174,180.07457,167.781174,180.171936C167.781174,180.223511,168.057053,180.727341,168.394257,181.291534L169.007339,182.317368L169.114166,181.944855C169.212784,181.601028,169.259567,181.572357,169.72197,181.572357z"/>
</svg>
